<?xml version="1.0" encoding="utf-8"?>
<!-- Generator: Adobe Illustrator 27.1.1, SVG Export Plug-In . SVG Version: 6.00 Build 0)  -->
<svg version="1.1" xmlns="http://www.w3.org/2000/svg" xmlns:xlink="http://www.w3.org/1999/xlink" x="0px" y="0px"
	 viewBox="0 0 1536 1536" style="enable-background:new 0 0 1536 1536;" xml:space="preserve">
<style type="text/css">
	.st0{display:none;}
	.st1{display:inline;fill:#BAB39A;}
	.st2{fill:#241F14;}
	.st3{fill:#D08A1F;}
	.st4{display:none;fill:#BAB39A;}
</style>
<g id="Слой_2" class="st0">
	<rect class="st1" width="1536" height="1536"/>
</g>
<g id="Слой_1">
	<g>
		<path class="st2" d="M527.4,1041.4c68.8-142.6,141.3-291.7,210.2-434.6c-2.4-1.5-4.3-2.6-6.5-4c-6.2,12.9-12.3,25.6-18.3,38.3
			c-13.6,28.3-27.2,56.6-40.7,84.8c-9.5,19.7-18.9,39.4-28.3,59.2c-3.8,8.1-7,16.4-10.9,24.4c-11.3,23-23.1,45.9-34.3,69
			c-8.5,17.5-16.4,35.2-24.6,52.8c-7.4,15.7-14.8,31.4-22.4,47c-6.5,13.3-13.5,26.3-20.1,39.5c-2,3.9-3.2,8.3-5.3,12.2
			c-0.9,1.6-3,3.7-4.5,3.7c-8.9-0.4-17.7-1.3-27.7-2.2c2.2-5,3.9-9.4,6-13.7c15-30.5,30.3-60.9,45.2-91.5
			c17.3-35.6,34.4-71.3,51.6-106.9c8.6-17.9,17.4-35.7,26-53.6c8.5-17.9,16.8-35.9,25.3-53.8c6.6-13.8,13.4-27.4,20-41.1
			c6.3-13.2,12.3-26.4,18.4-39.6c4.5-9.8,8.8-19.6,13.2-29.4c0.2-0.4,0.4-0.9,0.7-1.3c5.8-9.3,5.7-9.2-4.3-15.1
			c-4.1-2.5-8.1-5.3-11.8-7.8c7.8-15,15.3-29.6,22.9-44.1c3.6-7,7.5-13.9,11-21c6.5-13.3,12.7-26.7,19.2-39.9c1.7-3.5,4-6.6,6.1-9.9
			c3.5-5.4-1.7-8.4-3.7-11.9c-6.1-10.9-12.9-21.5-19.2-31.8c-7.1,4.6-13.8,8.9-20.6,13.3c5.4,8.6,11.1,17.4,16.3,26.5
			c0.9,1.6,0.3,4.8-0.7,6.8c-13.1,25.6-26.4,51.2-39.7,76.7c-3,5.8-6.4,11.5-9.9,17.8c-9.6-8.7-18.3-17-27.4-25
			c-11.4-10-23.1-19.7-34.4-29.7c-9.1-8-17.9-16.3-26.6-24.7c-0.9-0.9-1.3-3.4-0.7-4.5c5.8-10.4,12-20.6,17.9-31
			c4-7,7.9-14,11.3-21.2c6-12.7,16-18,29.7-17c1.6,0.1,3.3,0,5-0.2l2.2-9.6c-1.5-0.8-3-2-4.6-2.2c-4.2-0.5-8.6-0.2-12.8-1
			c-8.7-1.6-12.7,2.7-16.7,10c-16.1,29.4-32.7,58.5-49.4,87.5c-17.8,31.1-35.7,62.1-53.9,93c-3,5.1-0.6,7.5,2.6,10.8
			c21.2-37,42.1-73.7,63.2-110.5c30.3,27.7,60.1,54.9,90.2,82.2c-3.2,5.3-8.2,8.1-14.6,7.7c-10.8-0.6-18.9,4-25.4,12.2
			c-7.2,9.1-14.2,18.3-21.9,27.1c-8.2,9.4-16.1,19.3-25.7,27.1c-11.6,9.6-25.7,14.3-40.2,6.5c-7.2-3.9-12.6-10.8-19.1-16
			c-7.9-6.3-15.9-12.6-24.4-17.9c-10.1-6.3-16.6-29.5-10.5-40c3.8-6.4,7.4-13,11.2-19.4c7.3-12.2,14.9-24.2,22.1-36.5
			c5.6-9.8,10.4-20,16.1-29.8c16.7-28.5,33.8-56.8,50.5-85.3c5.3-9.1,10.3-18.4,15.3-27.6c2.9-5.4,9.1-7,18.3-6.4
			c10.1,0.7,20.3,0.2,30.1,0.2c0-33.9,0-67.3,0-101.9c4,3.5,7.2,6.5,10.7,9.2c26.5,20.4,47.4,45.1,60.2,76.3
			c0.7,1.8,4.8,3.2,7.3,3.3c44.1,0.4,82.8,15,116.9,42.8c12.8,10.4,23.3,22.6,31.6,36.5c5.8,9.7,10.8,19.8,15.6,30
			c2.9,5.9,4.5,12.5,7.3,18.4c0.8,1.6,3.8,3.1,5.8,3.1c52.8,0.1,105.6-0.2,158.5,0.1c12.9,0.1,25.8,1.3,38.7,2.9
			c16,2,26,13.4,35.4,25.1c9.6,12.1,13.4,25.9,13.7,41.4c0.3,17.8,2.2,35.5,2.9,53.2c0.9,24.1,1.1,48.3,2.1,72.4
			c0.7,17.9,2.2,35.7,3.1,53.5c0.8,15.9,1.2,31.8,1.9,47.8c1.3,27.1,2.8,54.2,3.9,81.2c0.9,21.9,2.1,43.8,1.9,65.7
			c-0.1,18.5-4.6,36.2-15.4,51.7c-2.6,3.8-5.8,7.1-8.9,10.6c-7.6,8.6-10.4,18.8-10.4,30c-0.1,80.5-0.1,161-0.2,241.4
			c0,3.8,1.2,5.5,5,5.3c16.9-0.8,27.4,9.8,38.9,22c-6,0.7-10.8,1.9-15.6,1.9c-12.9-0.1-25.9-0.9-38.8-0.9
			c-118.7-0.1-237.3,0-356-0.1c-56.6-0.1-113.2-0.6-169.9-0.7c-38.1-0.1-76.2,0-115.8,0c2.6-3.8,4.7-7.2,7.2-10.3
			c1.5-1.9,3.2-4.2,5.4-5.1c11.3-4.7,10.2-12.7,8.2-22.7c-4.2-20.8-0.8-41,9.7-59.7c4-7,8.4-14,13.7-20c4.6-5.2,10.5-9.3,16.2-13.2
			c15.7-10.9,31.7-21.4,47.6-32c1.1-0.7,2.2-1.4,3.4-2c3.9-1.7,7.8-3.2,11.7-4.8c-0.2-0.8-0.3-1.7-0.5-2.5c-4.8-1.9-9.6-4-14.5-5.6
			c-3.3-1.1-3.6-2.2-2.2-5.3c3.3-7.3,6-14.9,8.9-22.2 M801.9,688c-1,21.8-2.1,43.2-3,64.5c-0.7,17.6-1.3,35.2-1.9,52.8
			c-1,25.5-2.3,51.1-2.8,76.6c-0.3,17.1-0.1,34.3,1.1,51.3c1,13.8,6.3,26.7,16,36.7c13.3,13.9,21.6,29.2,21.5,49.1
			c-0.5,80.4-0.5,160.9-0.9,241.3c0,6,0.8,8,7.6,8c72.6-0.4,145.3-0.3,217.9-0.3c14.9,0,29.9,0,45.1,0c0-3.6,0-6.9,0-10.2
			c-0.1-80.8-0.1-161.6-0.2-242.4c0-15,5.8-27.7,15-38.7c13-15.5,21.5-32.7,20.9-53.3c-0.8-28.9-2.1-57.7-3.2-86.6
			c-0.3-6.6-0.5-13.3-0.9-19.9c-1.3-20.4-2.7-40.8-3.9-61.3c-1.2-21.4-2-42.8-3.2-64.2c-0.1-1.2-1.8-3.2-2.9-3.3
			c-11.9-0.6-23.9-0.7-35.9-1.2c-3.2-0.1-4.4,0.9-4.3,4.2c0.5,9.9,1.1,19.8,1.1,29.8c-0.1,14.4,0.8,29-1.4,43.1
			c-2.6,16.8-12.8,28.9-30.4,32.2c-8.9,1.6-18.3,1.2-28.1,1.8c0,19.4,0.1,39.8-0.1,60.2c-0.1,4.4-0.7,9.2-2.6,13
			c-6.8,13.7-17.5,23.2-32.3,28c-20.4,6.7-51.4-5.5-55.7-31c-2.1-12.3-2-25.1-2-37.7c-0.1-45.8,0-91.6,0.2-137.5
			c0-3.7-0.9-5.3-5-5.2c-9.2,0.3-18.3,0-27.5,0C867.4,688,834.9,688,801.9,688z M1124.1,664c0-9.3,0.3-18.4-0.1-27.4
			c-0.8-20-1.4-40-2.9-59.9c-1-13.3-1.2-27.3-5.4-39.7c-5.7-16.6-17.5-25.8-37.6-26.3c-8.8-0.2-17.7-0.2-26.5-0.2
			c-65,0-130,0.1-195-0.2c-29.5-0.1-48,22-49.6,42c-2.1,25.8-3,51.6-4.1,77.5c-0.5,11.2-0.1,22.4-0.1,33.9c0.2,0,0.9,0.2,1.5,0.2
			c48.8,0,97.6,0.1,146.4-0.1c4.7,0,6.4,1,6.3,6c-0.5,37.8-1,75.7-1.1,113.5c-0.1,23.8,0.5,47.6,0.8,71.4
			c0.1,7.6,8.7,18.5,15.1,19.3c18.7,2.3,30.9-9,30.2-27.6c-0.4-10.7-0.9-21.3-1.1-32c-0.3-10.2-0.4-20.4-0.4-30.7
			c0.1-13.9,0.4-27.8,0.5-41.8c0.1-4.9,0-9.8,0-14.7c8.5,0,16.5,0,23.8,0c0,12.6-0.1,25,0.1,37.4c0,2.4,0.7,6.3,2.2,6.9
			c7.2,3.1,14.6,3.4,22.2,0.5c8.9-3.5,8.5-12.2,9.2-18.6c0.9-8.4-0.4-17.2,0.2-25.9c1.1-15.1,0.6-30.4,0.6-45.6
			c0-31.3,0-62.6-0.1-93.9c0-8.3,0-16.5,0-24.7c14.1,0,27.2,0,40.5,0c0,2.4-0.2,4.6,0,6.7c0.6,4.6-1.1,6.3-5.8,5.8
			c-3.7-0.4-7.5-0.1-12-0.1c0.6,11,1.4,21.2,1.6,31.5c0.3,17.1-0.1,34.1,0.3,51.2c0,1.9,2.8,5.3,4.4,5.3
			C1100.7,664.3,1112.8,664,1124.1,664z M640,1006.4c0.3-2.3,0.2-3.3,0.6-4.1c3-6.5,6.1-12.9,9.2-19.3c5.1-10.5,10.2-20.9,15.4-31.3
			c5.7-11.6,11.6-23.1,17.2-34.8c26.1-54.2,52.2-108.5,78.1-162.8c4.8-10,11.6-19.9,13.1-30.5c2.9-19.5,2.5-39.4,3.5-59.9
			c-59,122.3-117.7,243.9-176.4,365.5c52.8,0,105,0,157.9,0c-1.1-7.8-2.1-14.9-3.2-22.9C717.2,1006.4,679,1006.4,640,1006.4z
			 M602.6,1133.2c-1.8,2.4-3.2,4.3-4.7,6.1c-4.3,5.3-8,11.5-13.2,15.6c-14.2,11-29.2,20.8-43.5,31.6c-18.4,14-27,41-19.8,61.5
			c3.5,10,2.6,9,10.8,6.5c-2-7.2-5.7-14.4-5.7-21.6c0-20.7,11.5-35.3,27.2-47.8c14.4-11.5,32.5-17.6,44.8-32.2
			C602.9,1147.4,606,1139.2,602.6,1133.2z"/>
		<path class="st3" d="M801.9,688c33.1,0,65.5,0,98,0c9.2,0,18.3,0.3,27.5,0c4.1-0.1,5,1.5,5,5.2c-0.2,45.8-0.3,91.6-0.2,137.5
			c0,12.6-0.1,25.4,2,37.7c4.4,25.5,35.3,37.7,55.7,31c14.9-4.9,25.5-14.3,32.3-28c1.9-3.8,2.6-8.6,2.6-13
			c0.3-20.4,0.1-40.9,0.1-60.2c9.9-0.6,19.2-0.2,28.1-1.8c17.6-3.2,27.8-15.4,30.4-32.2c2.2-14.1,1.3-28.7,1.4-43.1
			c0-9.9-0.6-19.8-1.1-29.8c-0.2-3.3,1-4.4,4.3-4.2c12,0.4,23.9,0.6,35.9,1.2c1,0,2.8,2.1,2.9,3.3c1.2,21.4,2,42.8,3.2,64.2
			c1.1,20.4,2.6,40.8,3.9,61.3c0.4,6.6,0.6,13.3,0.9,19.9c1.1,28.9,2.4,57.7,3.2,86.6c0.6,20.6-7.8,37.7-20.9,53.3
			c-9.2,11-15.1,23.8-15,38.7c0.2,80.8,0.2,161.6,0.2,242.4c0,3.3,0,6.6,0,10.2c-15.2,0-30.1,0-45.1,0c-72.6,0-145.3,0-217.9,0.3
			c-6.7,0-7.6-2-7.6-8c0.4-80.4,0.4-160.9,0.9-241.3c0.1-19.9-8.2-35.2-21.5-49.1c-9.7-10.1-15-22.9-16-36.7
			c-1.3-17-1.5-34.2-1.1-51.3c0.5-25.6,1.9-51.1,2.8-76.6c0.7-17.6,1.2-35.2,1.9-52.8C799.8,731.2,800.8,709.8,801.9,688z
			 M1089.8,1013.4c0.8-13.4,6.1-25.1,14.5-35.2c16.9-20.2,24.2-43,21.6-69.3c-1.4-13.9-1.8-27.9-1.7-41.9c0-5.2-1.3-6.1-5.9-6.1
			c-4.8,0-6.9,1.1-6.6,6.5c0.7,12.4,0.8,24.9,1.2,37.3c0,1.1,0.3,2.3,0.4,3.4c0.9,14,2.4,28.1-4.8,41c-3.8,6.7-8.4,13-13.1,19.2
			c-11.5,15.3-17.3,32.7-17.5,51.6c-0.4,49.3-0.1,98.7-0.2,148c-0.1,28-0.7,56-0.7,83.9c0,1.9,2.7,5.4,4.2,5.5
			c2.7,0.1,7.5,1.6,7.6-4.3c0.1-6,0.4-12.1,0.6-18.1c0.1-25.8,0.2-51.5,0.2-77.3C1089.8,1109.5,1089.8,1061.4,1089.8,1013.4z
			 M1020.5,902.3c16.7-3.8,33.1-22,33.3-38.7c0.1-14.9-1.6-29.7-2.8-44.6c-0.2-2-1.6-5.3-2.9-5.6c-4.2-0.7-8.6-0.3-11.7-0.3
			c1.7,14.6,3.1,28.7,4.9,42.7c1.8,14.3-4.5,24.8-15.7,32.1C1019.6,891.9,1018.5,896,1020.5,902.3z M1110,831c0,4.8,0,8.7,0,12.7
			c0,7.5,0.9,8.4,8.3,7.1c1.6-0.3,3.1-1,4.8-1.5c-0.4-4.6-0.3-9.2-1.2-13.5c-0.4-1.8-2.7-3.8-4.6-4.6
			C1115.3,830.4,1112.7,831,1110,831z"/>
		<path class="st4" d="M1124.1,664c-11.3,0-23.4,0.2-35.5-0.2c-1.6-0.1-4.4-3.5-4.4-5.3c-0.4-17.1,0-34.1-0.3-51.2
			c-0.2-10.2-1-20.5-1.6-31.5c4.5,0,8.2-0.3,12,0.1c4.7,0.5,6.3-1.3,5.8-5.8c-0.3-2.1,0-4.3,0-6.7c-13.3,0-26.4,0-40.5,0
			c0,8.2,0,16.5,0,24.7c0,31.3,0.1,62.6,0.1,93.9c0,15.2,0.5,30.4-0.6,45.6c-0.6,8.8,0.8,17.5-0.2,25.9c-0.7,6.4-0.3,15.1-9.2,18.6
			c-7.6,3-15,2.6-22.2-0.5c-1.5-0.6-2.2-4.5-2.2-6.9c-0.2-12.4-0.1-24.8-0.1-37.4c-7.3,0-15.3,0-23.8,0c0,4.9,0,9.8,0,14.7
			c-0.2,13.9-0.5,27.8-0.5,41.8c0,10.2,0.1,20.4,0.4,30.7c0.3,10.7,0.7,21.3,1.1,32c0.7,18.6-11.5,29.9-30.2,27.6
			c-6.4-0.8-15-11.7-15.1-19.3c-0.4-23.8-0.9-47.6-0.8-71.4c0.1-37.8,0.5-75.7,1.1-113.5c0.1-5-1.6-6-6.3-6
			c-48.8,0.2-97.6,0.1-146.4,0.1c-0.6,0-1.3-0.1-1.5-0.2c0-11.4-0.4-22.7,0.1-33.9c1.1-25.8,2-51.7,4.1-77.5
			c1.6-20,20.2-42.1,49.6-42c65,0.3,130,0.1,195,0.2c8.8,0,17.7,0,26.5,0.2c20.1,0.5,31.8,9.6,37.6,26.3c4.3,12.4,4.5,26.4,5.4,39.7
			c1.5,19.9,2.1,39.9,2.9,59.9C1124.4,645.7,1124.1,654.7,1124.1,664z"/>
		<path class="st4" d="M640,1006.4c39,0,77.3,0,115.5,0c1.1,8,2.1,15,3.2,22.9c-52.9,0-105.1,0-157.9,0
			C659.5,907.7,718.2,786,777.2,663.7c-1,20.5-0.7,40.4-3.5,59.9c-1.6,10.6-8.3,20.5-13.1,30.5c-26,54.3-52,108.5-78.1,162.8
			c-5.6,11.7-11.5,23.2-17.2,34.8c-5.1,10.4-10.3,20.9-15.4,31.3c-3.1,6.4-6.2,12.8-9.2,19.3C640.2,1003.1,640.3,1004.1,640,1006.4z
			"/>
		<path class="st4" d="M602.6,1133.2c3.5,6,0.3,14.3-4.2,19.7c-12.3,14.6-30.4,20.7-44.8,32.2c-15.7,12.5-27.2,27.1-27.2,47.8
			c0,7.2,3.7,14.4,5.7,21.6c-8.2,2.5-7.3,3.5-10.8-6.5c-7.2-20.6,1.4-47.6,19.8-61.5c14.3-10.8,29.4-20.6,43.5-31.6
			c5.3-4.1,8.9-10.3,13.2-15.6C599.4,1137.5,600.8,1135.5,602.6,1133.2z"/>
		<path class="st2" d="M1089.6,1234.9c-0.2,6-0.6,12.1-0.6,18.1c-0.1,5.9-4.8,4.4-7.6,4.3c-1.6-0.1-4.2-3.5-4.2-5.5
			c0-28,0.6-56,0.7-83.9c0.2-49.3-0.2-98.7,0.2-148c0.2-18.9,5.9-36.3,17.5-51.6c4.7-6.2,9.3-12.5,13.1-19.2c7.2-12.9,5.7-27,4.8-41
			c-0.1-1.1-0.4-2.3-0.4-3.4c-0.4-12.4-0.5-24.9-1.2-37.3c-0.3-5.4,1.8-6.5,6.6-6.5c4.5,0,5.9,0.9,5.9,6.1c-0.1,14,0.3,28,1.7,41.9
			c2.6,26.3-4.7,49.2-21.6,69.3c-8.5,10.1-13.7,21.8-14.5,35.2c-0.2,3.3-0.7,6.6-0.7,9.9c0,52.9,0,105.8,0.1,158.8
			C1089.2,1199.7,1089.4,1217.3,1089.6,1234.9z"/>
		<path class="st2" d="M1020.5,902.3c-2-6.3-0.9-10.4,5.1-14.3c11.2-7.3,17.6-17.8,15.7-32.1c-1.8-14.1-3.2-28.2-4.9-42.7
			c3.1,0,7.5-0.4,11.7,0.3c1.3,0.2,2.7,3.6,2.9,5.6c1.2,14.8,2.9,29.7,2.8,44.6C1053.7,880.3,1037.2,898.5,1020.5,902.3z"/>
		<path class="st2" d="M1110,831c2.7,0,5.3-0.6,7.2,0.2c1.9,0.8,4.2,2.8,4.6,4.6c0.9,4.3,0.9,8.8,1.2,13.5c-1.7,0.6-3.2,1.2-4.8,1.5
			c-7.4,1.3-8.3,0.4-8.3-7.1C1110,839.7,1110,835.8,1110,831z"/>
		<path class="st4" d="M1089.6,1234.9c-0.1-17.6-0.4-35.2-0.4-52.8c-0.1-52.9-0.1-105.8-0.1-158.8c0-3.3,0.4-6.6,0.7-9.9
			c0,48.1,0,96.1,0,144.2C1089.8,1183.3,1089.7,1209.1,1089.6,1234.9z"/>
	</g>
</g>
</svg>
